<svg xmlns="http://www.w3.org/2000/svg" xmlns:xlink="http://www.w3.org/1999/xlink" width="800" height="600" viewBox="0 0 800 600">
  <defs>
    <clipPath id="clip-process">
      <rect width="800" height="600"/>
    </clipPath>
  </defs>
  <g id="process" clip-path="url(#clip-process)">
    <g id="undraw_process_7lkc" transform="translate(162 51)">
      <rect id="Rectangle_1" data-name="Rectangle 1" width="1.32" height="86.228" transform="translate(330.455 61.644) rotate(-46.407)" fill="#e6e6e6"/>
      <path id="Path_1" data-name="Path 1" d="M496.862,143.982l-1.319.08.4,6.5-6.508-.078-.014,1.32,7.927.094Z" transform="translate(-102.944 -30.285)" fill="#e6e6e6"/>
      <path id="Path_2" data-name="Path 2" d="M425.67,76.3l-.014,1.32-6.508-.078.4,6.5-1.32.08-.482-7.912Z" transform="translate(-87.868 -16.029)" fill="#e6e6e6"/>
      <circle id="Ellipse_1" data-name="Ellipse 1" cx="7.259" cy="7.259" r="7.259" transform="translate(354.879 83.635)" fill="#e6e6e6"/>
      <rect id="Rectangle_2" data-name="Rectangle 2" width="86.228" height="1.32" transform="translate(82.56 120.145) rotate(-43.593)" fill="#e6e6e6"/>
      <path id="Path_3" data-name="Path 3" d="M103.815,151.894l7.927-.094-.015-1.32-6.508.078.4-6.5-1.319-.08Z" transform="translate(-21.836 -30.285)" fill="#e6e6e6"/>
      <path id="Path_4" data-name="Path 4" d="M183.416,76.206l-.482,7.912-1.319-.08.4-6.5-6.508.078-.014-1.32Z" transform="translate(-36.912 -16.029)" fill="#e6e6e6"/>
      <circle id="Ellipse_2" data-name="Ellipse 2" cx="7.259" cy="7.259" r="7.259" transform="translate(106.983 83.635)" fill="#e6e6e6"/>
      <path id="Path_5" data-name="Path 5" d="M638.6,285.464H529.054a5.946,5.946,0,0,1-5.939-5.939V140.939A5.946,5.946,0,0,1,529.054,135H638.6a5.946,5.946,0,0,1,5.939,5.939V279.525A5.946,5.946,0,0,1,638.6,285.464ZM529.054,136.32a4.625,4.625,0,0,0-4.619,4.62V279.524a4.625,4.625,0,0,0,4.62,4.62H638.6a4.625,4.625,0,0,0,4.62-4.62V140.939a4.625,4.625,0,0,0-4.62-4.62Z" transform="translate(-346.298 -135)" fill="#3f3d56"/>
      <path id="Path_6" data-name="Path 6" d="M581.246,210.2H557.132a2.973,2.973,0,0,1-2.97-2.97V178.771a2.973,2.973,0,0,1,2.97-2.97h24.114a2.973,2.973,0,0,1,2.97,2.97v28.456A2.973,2.973,0,0,1,581.246,210.2Z" transform="translate(-352.829 -143.582)" fill="#17b8a6"/>
      <path id="Path_7" data-name="Path 7" d="M640.582,226.911H616.468a2.973,2.973,0,0,1-2.97-2.97V195.485a2.973,2.973,0,0,1,2.97-2.97h24.114a2.973,2.973,0,0,1,2.97,2.97v28.456A2.973,2.973,0,0,1,640.582,226.911Z" transform="translate(-365.309 -147.098)" fill="#ccc"/>
      <path id="Path_8" data-name="Path 8" d="M592.946,277.889H568.832a2.973,2.973,0,0,1-2.97-2.97V246.464a2.973,2.973,0,0,1,2.97-2.97h24.114a2.973,2.973,0,0,1,2.97,2.97V274.92A2.973,2.973,0,0,1,592.946,277.889Z" transform="translate(-355.29 -157.821)" fill="#ff6584"/>
      <path id="Path_9" data-name="Path 9" d="M862.517,465.921H752.968a5.946,5.946,0,0,1-5.939-5.939V321.4a5.946,5.946,0,0,1,5.939-5.939H862.517a5.946,5.946,0,0,1,5.939,5.94V459.982a5.946,5.946,0,0,1-5.939,5.939ZM752.968,316.777a4.625,4.625,0,0,0-4.619,4.62V459.982a4.625,4.625,0,0,0,4.62,4.62H862.517a4.625,4.625,0,0,0,4.619-4.62V321.4a4.625,4.625,0,0,0-4.619-4.62Z" transform="translate(-393.396 -172.957)" fill="#3f3d56"/>
      <path id="Path_10" data-name="Path 10" d="M837.009,352.912H799.393a2.64,2.64,0,0,1,0-5.279h37.616a2.64,2.64,0,0,1,0,5.279Z" transform="translate(-403.855 -179.725)" fill="#17b8a6"/>
      <path id="Path_11" data-name="Path 11" d="M850.565,384.669H775.993a2.64,2.64,0,0,1,0-5.279h74.572a2.64,2.64,0,0,1,0,5.279Z" transform="translate(-398.933 -186.405)" fill="#ccc"/>
      <path id="Path_12" data-name="Path 12" d="M850.565,402.219H775.993a2.64,2.64,0,1,1,0-5.279h74.572a2.64,2.64,0,0,1,0,5.279Z" transform="translate(-398.933 -190.096)" fill="#ccc"/>
      <path id="Path_13" data-name="Path 13" d="M850.565,419.769H775.993a2.64,2.64,0,0,1,0-5.279h74.572a2.64,2.64,0,0,1,0,5.279Z" transform="translate(-398.933 -193.788)" fill="#ccc"/>
      <path id="Path_14" data-name="Path 14" d="M850.565,437.319H775.993a2.64,2.64,0,0,1,0-5.279h74.572a2.64,2.64,0,0,1,0,5.279Z" transform="translate(-398.933 -197.479)" fill="#ccc"/>
      <path id="Path_15" data-name="Path 15" d="M850.565,454.869H775.993a2.64,2.64,0,0,1,0-5.279h74.572a2.64,2.64,0,0,1,0,5.279Z" transform="translate(-398.933 -201.17)" fill="#ccc"/>
      <path id="Path_16" data-name="Path 16" d="M850.565,472.419H775.993a2.64,2.64,0,0,1,0-5.279h74.572a2.64,2.64,0,0,1,0,5.279Z" transform="translate(-398.933 -204.862)" fill="#ccc"/>
      <path id="Path_17" data-name="Path 17" d="M414.688,465.921H305.139a5.946,5.946,0,0,1-5.939-5.939V321.4a5.946,5.946,0,0,1,5.939-5.939H414.688a5.946,5.946,0,0,1,5.939,5.939V459.982a5.946,5.946,0,0,1-5.939,5.939ZM305.139,316.777a4.625,4.625,0,0,0-4.62,4.62V459.982a4.625,4.625,0,0,0,4.62,4.62H414.688a4.625,4.625,0,0,0,4.62-4.62V321.4a4.625,4.625,0,0,0-4.62-4.62Z" transform="translate(-299.2 -172.957)" fill="#3f3d56"/>
      <path id="Path_18" data-name="Path 18" d="M413.956,355.487h-33a2.64,2.64,0,0,1,0-5.279h33a2.64,2.64,0,0,1,0,5.279Z" transform="translate(-315.842 -180.267)" fill="#3f3d56"/>
      <path id="Path_19" data-name="Path 19" d="M413.956,373.037h-33a2.64,2.64,0,1,1,0-5.279h33a2.64,2.64,0,0,1,0,5.279Z" transform="translate(-315.842 -183.958)" fill="#3f3d56"/>
      <path id="Path_20" data-name="Path 20" d="M353.008,375.274H328.894a2.973,2.973,0,0,1-2.97-2.97V343.848a2.973,2.973,0,0,1,2.97-2.97h24.114a2.973,2.973,0,0,1,2.97,2.97V372.3A2.973,2.973,0,0,1,353.008,375.274Z" transform="translate(-304.821 -178.304)" fill="#17b8a6"/>
      <path id="Path_21" data-name="Path 21" d="M402.592,408.972H328.02a2.64,2.64,0,0,1,0-5.279h74.572a2.64,2.64,0,1,1,0,5.279Z" transform="translate(-304.707 -191.517)" fill="#ccc"/>
      <path id="Path_22" data-name="Path 22" d="M402.592,426.522H328.02a2.64,2.64,0,0,1,0-5.279h74.572a2.64,2.64,0,1,1,0,5.279Z" transform="translate(-304.707 -195.208)" fill="#ccc"/>
      <path id="Path_23" data-name="Path 23" d="M402.592,444.072H328.02a2.64,2.64,0,1,1,0-5.279h74.572a2.64,2.64,0,1,1,0,5.279Z" transform="translate(-304.707 -198.899)" fill="#ccc"/>
      <path id="Path_24" data-name="Path 24" d="M402.592,461.622H328.02a2.64,2.64,0,1,1,0-5.279h74.572a2.64,2.64,0,1,1,0,5.279Z" transform="translate(-304.707 -202.591)" fill="#ccc"/>
      <path id="Path_25" data-name="Path 25" d="M402.592,479.172H328.02a2.64,2.64,0,0,1,0-5.279h74.572a2.64,2.64,0,1,1,0,5.279Z" transform="translate(-304.707 -206.282)" fill="#ccc"/>
      <path id="Path_26" data-name="Path 26" d="M497.895,599.348V570.892a2.973,2.973,0,0,1,2.97-2.97h24.114a2.973,2.973,0,0,1,2.97,2.97v28.456a2.973,2.973,0,0,1-2.97,2.97H500.865a2.973,2.973,0,0,1-2.97-2.969Z" transform="translate(-340.993 -226.061)" fill="#e6e6e6"/>
      <path id="Path_27" data-name="Path 27" d="M508.895,587.348V558.892a2.973,2.973,0,0,1,2.97-2.97h24.114a2.973,2.973,0,0,1,2.97,2.97v28.456a2.973,2.973,0,0,1-2.97,2.97H511.865a2.973,2.973,0,0,1-2.97-2.969Z" transform="translate(-343.307 -223.536)" fill="#17b8a6"/>
      <path id="Path_28" data-name="Path 28" d="M643.289,566.751a7.168,7.168,0,0,1-1.894-10.827l-7.475-54.635,15.57.764,2.444,53.291a7.207,7.207,0,0,1-8.646,11.407Z" transform="translate(-369.605 -212.045)" fill="#a0616a"/>
      <path id="Path_29" data-name="Path 29" d="M647.72,492.682a2.926,2.926,0,0,1-1.189.841l-13.992,5.34a2.94,2.94,0,0,1-3.734-1.551L616.41,469.456a11.639,11.639,0,0,1-.57-8.237,11.321,11.321,0,0,1,8.617-7.725,10.8,10.8,0,0,1,4.651.066,11.276,11.276,0,0,1,8.1,7.045l11.021,29.131A2.946,2.946,0,0,1,647.72,492.682Z" transform="translate(-365.697 -201.945)" fill="#ccc"/>
      <path id="Path_30" data-name="Path 30" d="M261.293,608.067h-9.681l-3.51-37.518,13.193.177Z" transform="translate(-52.186 -120.009)" fill="#a0616a"/>
      <path id="Path_31" data-name="Path 31" d="M240.659,614.557h18.671v11.756H228.9a11.756,11.756,0,0,1,11.756-11.756Z" transform="translate(-48.147 -129.265)" fill="#2f2e41"/>
      <path id="Path_32" data-name="Path 32" d="M318,608.113H308.32l-4.605-37.341H318Z" transform="translate(-63.883 -120.056)" fill="#a0616a"/>
      <path id="Path_33" data-name="Path 33" d="M297.659,614.557h18.671v11.756H285.9A11.756,11.756,0,0,1,297.659,614.557Z" transform="translate(-60.137 -129.265)" fill="#2f2e41"/>
      <path id="Path_34" data-name="Path 34" d="M605.961,699.253l-15.205-1.126a3.558,3.558,0,0,1-3.287-3.372l-3.39-70.067a2.764,2.764,0,0,0-5.468-.421l-14.144,69.022a3.558,3.558,0,0,1-3.764,2.829l-13.745-1.1a3.553,3.553,0,0,1-3.253-3.9l12.751-127.512a3.553,3.553,0,0,1,4.291-3.119l48.49,10.541a3.562,3.562,0,0,1,2.8,3.539l-2.258,121.2a3.555,3.555,0,0,1-3.545,3.487C606.142,699.263,606.052,699.259,605.961,699.253Z" transform="translate(-350.625 -224.481)" fill="#2f2e41"/>
      <circle id="Ellipse_3" data-name="Ellipse 3" cx="19.395" cy="19.395" r="19.395" transform="translate(222.639 193.725)" fill="#a0616a"/>
      <path id="Path_35" data-name="Path 35" d="M566.061,547.524a17.342,17.342,0,0,1-5.76-13.319c0-27.876,24.129-90.154,24.885-92.1.074-.468.71-.67,4.05-2.927s8.161-2.6,14.324-1.031a3.537,3.537,0,0,1,2.566,2.62l1.146,1.656a2.757,2.757,0,0,0,1.6,1.9c4.97,2.094,20.767,11.749,15.384,48.084-5,33.753-7.029,53.6-7.67,60.571a3.546,3.546,0,0,1-3.215,3.21c-2.437.218-6.619.508-11.6.508C590.229,556.7,574.392,555.143,566.061,547.524Z" transform="translate(-354.119 -198.561)" fill="#ccc"/>
      <path id="Path_36" data-name="Path 36" d="M538.052,547.968a7.168,7.168,0,0,1,4.461-10.046L566.75,488.39l12.5,9.311-27.665,45.613a7.207,7.207,0,0,1-13.536,4.654Z" transform="translate(-349.286 -209.332)" fill="#a0616a"/>
      <path id="Path_37" data-name="Path 37" d="M587.273,490.1a2.925,2.925,0,0,1-1.455.036l-14.595-3.362a2.94,2.94,0,0,1-2.236-3.369l5.229-30.037a11.639,11.639,0,0,1,4.117-7.157,11.321,11.321,0,0,1,11.459-1.613,10.8,10.8,0,0,1,3.826,2.646,11.276,11.276,0,0,1,2.8,10.366l-7.081,30.33a2.946,2.946,0,0,1-2.068,2.161Z" transform="translate(-355.938 -199.935)" fill="#ccc"/>
      <path id="Path_38" data-name="Path 38" d="M594.746,415.936a8.358,8.358,0,0,1-2.242-7.412c.676-3.537,1.073-5.852,1.149-6.694h0c.258-2.88-2.654-5.212-5.536-5.583-.112-.015-.205-.024-.283-.03.073.072.152.146.221.211.547.514,1.229,1.154,1.067,1.814-.1.4-.461.68-1.111.861-4.506,1.261-7.976.1-10.922-3.645a8.706,8.706,0,0,1-1.662-3.631c-1.055-5.176,1.756-9.589,4.3-12.378,2.1-2.3,5.5-5.093,9.787-5.332,3.335-.186,7.3,1.733,8.488,5.191a6.443,6.443,0,0,1,5.023-2.832,11.578,11.578,0,0,1,6.442,1.792c9.4,5.387,13.446,18.22,8.826,28.023a22.293,22.293,0,0,1-16.433,11.981,8.2,8.2,0,0,1-1.37.116,7.987,7.987,0,0,1-5.746-2.452Z" transform="translate(-357.254 -185.293)" fill="#2f2e41"/>
      <path id="Path_39" data-name="Path 39" d="M484.569,764.579H638.552a.79.79,0,1,0,0-1.579H484.569a.79.79,0,1,0,0,1.579Z" transform="translate(-338.024 -267.093)" fill="#3f3d56"/>
    </g>
  </g>
</svg>
